# xmcd
#
# Track frame offsets: 
#        150
#        17436
#        34566
#        51613
#        69735
#        86875
#        101580
#        117238
#        135311
#        149851
#
# Disc length: 2282 seconds
#
# Revision: 0
# Processed by: cddbd v1.5.2PL0 Copyright (c) Steve Scherf et al.
# Submitted via: ExactAudioCopy v0.99pb4
#
DISCID=9008e80a
DTITLE=Giselle - Ready When You Are
DYEAR=2008
DGENRE=Country
TTITLE0=Ready When You Are
TTITLE1=Movin' On
TTITLE2=Masterpiece
TTITLE3=I'd Do It All Again
TTITLE4=Too Far To Fall
TTITLE5=Turn It All Down
TTITLE6=Hearts Still Breaking
TTITLE7=Little Things
TTITLE8=Right Where I Wanna Be
TTITLE9=Let My Love
EXTD=
EXTT0=
EXTT1=
EXTT2=
EXTT3=
EXTT4=
EXTT5=
EXTT6=
EXTT7=
EXTT8=
EXTT9=
PLAYORDER=
